<?xml version="1.0" encoding="UTF-8" standalone="no"?>
<!-- Created with Inkscape (http://www.inkscape.org/) -->

<svg
   width="120mm"
   height="50mm"
   viewBox="0 0 120 50"
   version="1.1"
   id="svg5"
   inkscape:version="1.3.1 (91b66b0783, 2023-11-16)"
   sodipodi:docname="resumebutton.svg"
   xmlns:inkscape="http://www.inkscape.org/namespaces/inkscape"
   xmlns:sodipodi="http://sodipodi.sourceforge.net/DTD/sodipodi-0.dtd"
   xmlns="http://www.w3.org/2000/svg"
   xmlns:svg="http://www.w3.org/2000/svg">
  <sodipodi:namedview
     id="namedview7"
     pagecolor="#979797"
     bordercolor="#eeeeee"
     borderopacity="1"
     inkscape:showpageshadow="0"
     inkscape:pageopacity="0"
     inkscape:pagecheckerboard="0"
     inkscape:deskcolor="#505050"
     inkscape:document-units="mm"
     showgrid="false"
     inkscape:zoom="3.0182098"
     inkscape:cx="216.0221"
     inkscape:cy="122.75489"
     inkscape:window-width="1920"
     inkscape:window-height="1027"
     inkscape:window-x="-8"
     inkscape:window-y="-8"
     inkscape:window-maximized="1"
     inkscape:current-layer="layer1" />
  <defs
     id="defs2" />
  <g
     inkscape:label="Layer 1"
     inkscape:groupmode="layer"
     id="layer1">
    <path
       id="path10035"
       style="font-style:italic;font-weight:normal;font-size:21.5632px;line-height:1.25;font-family:CeraGR-Bold;-inkscape-font-specification:'CeraGR-Bold Italic';letter-spacing:0px;word-spacing:0px;display:inline;fill:#ffffff;fill-opacity:1;stroke-width:0.539081"
       d="m 49.028049,17.43489 c -1.365668,0 -2.494045,0.373855 -3.385323,1.121379 -0.891278,0.733148 -1.336869,1.703395 -1.336869,2.910933 0,0.934405 0.29479,1.725053 0.884184,2.371949 0.603769,0.646895 1.458825,1.221818 2.565735,1.724959 l 1.531172,0.68988 c 0.460015,0.215632 0.790931,0.38109 0.992188,0.496094 0.215632,0.115003 0.402559,0.287274 0.560689,0.517281 0.172505,0.215632 0.258382,0.467484 0.258382,0.754993 0,0.488765 -0.179599,0.876761 -0.538985,1.16427 -0.359386,0.273134 -0.855245,0.409794 -1.487764,0.409794 -1.336918,0 -2.501421,-0.690115 -3.493327,-2.070158 l -2.005563,1.509469 c 0.546267,0.963155 1.293978,1.732334 2.242758,2.307352 0.963155,0.560643 2.048594,0.840776 3.256132,0.840776 1.45192,0 2.645222,-0.387995 3.579626,-1.16427 0.934405,-0.776275 1.401465,-1.811446 1.401465,-3.105237 0,-0.963155 -0.287462,-1.761132 -0.86248,-2.393652 -0.575018,-0.646896 -1.459388,-1.235959 -2.652551,-1.767851 l -1.616956,-0.711584 c -0.603768,-0.273134 -1.035219,-0.517657 -1.293977,-0.733289 -0.244383,-0.230007 -0.366386,-0.531609 -0.366386,-0.905371 0,-0.445639 0.164942,-0.783885 0.495577,-1.013892 0.345011,-0.244383 0.769133,-0.366386 1.272273,-0.366386 1.078159,0 1.983999,0.546126 2.717147,1.63866 l 1.983858,-1.530656 C 53.283416,19.310933 52.658226,18.656428 51.8532,18.167662 51.06255,17.678897 50.120584,17.43489 49.028049,17.43489 Z m 22.684925,0 v 14.490072 h 2.91093 V 24.31354 l 3.57963,4.506702 h 0.94877 l 3.57911,-4.506702 v 7.611422 h 2.91094 V 17.43489 h -0.94878 l -6.01565,7.719426 -6.01618,-7.719426 z M 18.40873,17.693273 v 14.231689 h 2.910933 v -5.023983 h 2.134754 l 3.687113,5.023983 h 3.277836 l -4.032312,-5.606376 c 0.776275,-0.388138 1.387324,-0.926934 1.832963,-1.616956 0.445639,-0.704397 0.668176,-1.509702 0.668176,-2.415356 0,-1.380043 -0.481718,-2.486951 -1.444873,-3.320728 -0.94878,-0.848151 -2.177691,-1.272273 -3.687113,-1.272273 z m 13.800191,0 v 14.231689 h 9.832992 v -2.63033 h -6.922059 v -3.601331 h 4.894792 V 23.213866 H 35.119854 V 20.32412 h 6.66316 v -2.630847 z m 24.280172,0 V 26.0385 c 0,1.868808 0.560783,3.363712 1.682068,4.484997 1.13566,1.10691 2.587623,1.660364 4.355803,1.660364 1.76818,0 3.21282,-0.553454 4.33411,-1.660364 1.13566,-1.121285 1.70325,-2.616189 1.70325,-4.484997 v -8.345227 h -2.91093 v 8.560717 c 0,1.035033 -0.28747,1.83301 -0.86248,2.393653 -0.57502,0.560642 -1.32954,0.840775 -2.26395,0.840775 -0.92003,0 -1.67507,-0.280133 -2.264458,-0.840775 -0.575018,-0.560643 -0.86248,-1.35862 -0.86248,-2.393653 v -8.560717 z m 32.431091,0 v 14.231689 h 9.833 v -2.63033 h -6.92206 v -3.601331 h 4.89479 v -2.479435 h -4.89479 V 20.32412 h 6.66316 v -2.630847 z m -67.600521,2.566251 h 2.436544 c 0.661271,0 1.185927,0.186927 1.574064,0.56069 0.388137,0.373761 0.582394,0.862291 0.582394,1.46606 0,0.618145 -0.194257,1.11452 -0.582394,1.488281 -0.373762,0.373762 -0.898417,0.560173 -1.574064,0.560173 h -2.436544 z m -9.914125,-8.606039 c 31.489209,0 62.978416,0 94.467622,0 0,8.926076 0,17.852153 0,26.778229 -31.489206,0 -62.978413,0 -94.467622,0 0,-8.926076 0,-17.852153 0,-26.778229 z"
       sodipodi:nodetypes="scscccccscscccsssccccscscccscccccccccccccccccccccccscscccccccccccccccscscsccssscsccccccccccccccccssscsccccccc" />
    <rect
       style="fill:#ffffff;fill-opacity:0;stroke:#ffffff;stroke-width:2.57;stroke-linejoin:bevel;stroke-dasharray:none"
       id="rect3"
       width="95.814934"
       height="28.227274"
       x="10.431818"
       y="10.870131"
       rx="2.1038935"
       ry="2.2792215" />
  </g>
</svg>
